<?xml version="1.0" encoding="utf-8"?>
<!-- Generated by IcoMoon.io -->
<!DOCTYPE svg PUBLIC "-//W3C//DTD SVG 1.1//EN" "http://www.w3.org/Graphics/SVG/1.1/DTD/svg11.dtd">
<svg version="1.1" xmlns="http://www.w3.org/2000/svg" xmlns:xlink="http://www.w3.org/1999/xlink" width="1024" height="1024" viewBox="0 0 1024 1024"><g id="icomoon-ignore">
</g>
<path d="M618.24 972.512l19.648-98.048c14.176-4.928 27.936-10.752 41.248-17.184l83.328 55.552c25.376 16.928 59.2 13.568 80.736-8l61.568-61.568c12.384-12.384 18.752-28.736 18.752-45.312 0-12.256-3.52-24.64-10.752-35.424l-55.52-83.328c6.464-13.376 12.224-27.136 17.152-41.312l98.080-19.648c29.952-5.952 51.456-32.256 51.456-62.752v-87.040c0-30.496-21.536-56.768-51.456-62.752l-98.080-19.648c-4.928-14.176-10.72-27.936-17.152-41.248l55.52-83.296c7.232-10.848 10.752-23.2 10.752-35.488 0-16.544-6.368-32.896-18.752-45.28l-61.568-61.536c-21.568-21.568-55.36-24.928-80.736-8l-83.328 55.52c-13.344-6.464-27.104-12.224-41.28-17.152l-19.616-98.112c-5.984-29.92-32.256-51.456-62.752-51.456h-87.040c-30.496 0-56.8 21.536-62.752 51.456l-19.68 98.080c-14.176 4.928-27.936 10.72-41.248 17.152l-83.328-55.488c-25.376-16.928-59.2-13.568-80.736 8l-61.568 61.568c-12.384 12.384-18.752 28.736-18.752 45.28 0 12.288 3.552 24.672 10.752 35.456l55.552 83.328c-6.496 13.344-12.256 27.104-17.184 41.28l-98.048 19.616c-29.952 5.984-51.488 32.256-51.488 62.752v87.040c0 30.496 21.568 56.8 51.488 62.752l98.048 19.68c4.928 14.176 10.752 27.936 17.184 41.248l-55.552 83.328c-7.2 10.816-10.752 23.2-10.752 35.424 0 16.576 6.368 32.928 18.752 45.312l61.568 61.568c21.568 21.568 55.36 24.928 80.736 8l83.328-55.552c13.376 6.496 27.136 12.256 41.312 17.184l19.616 98.048c5.92 29.92 32.256 51.488 62.752 51.488h87.040c30.496 0 56.768-21.568 62.752-51.488zM448.8 861.888c-4.448-22.24-20.32-40.448-41.76-47.872-11.808-4.128-23.264-8.928-34.368-14.304-20.448-9.952-44.576-8.256-63.424 4.32l-83.328 55.552-61.568-61.568 55.552-83.328c7.136-10.688 10.752-23.072 10.752-35.488 0-9.504-2.112-19.072-6.368-27.872-5.376-11.136-10.24-22.56-14.368-34.432-7.424-21.376-25.632-37.248-47.872-41.696l-98.112-19.68v-87.040l98.112-19.616c22.24-4.448 40.448-20.32 47.872-41.728 4.128-11.808 8.928-23.296 14.304-34.4 4.32-8.832 6.432-18.368 6.432-27.904 0-12.448-3.616-24.8-10.752-35.488l-55.552-83.328 61.568-61.568 83.328 55.52c18.88 12.576 43.008 14.208 63.36 4.384 11.136-5.376 22.56-10.208 34.432-14.336 21.376-7.424 37.248-25.664 41.696-47.872l19.68-98.080 87.072-0.064 19.616 98.112c4.448 22.208 20.32 40.448 41.728 47.872 11.808 4.128 23.296 8.896 34.4 14.304 20.416 9.92 44.544 8.256 63.392-4.352l83.328-55.488 61.568 61.536-55.52 83.328c-7.136 10.688-10.752 23.072-10.752 35.488 0 9.504 2.112 19.040 6.368 27.872 5.376 11.104 10.208 22.56 14.336 34.4 7.424 21.408 25.664 37.28 47.872 41.728l98.080 19.648 0.032 87.040-98.112 19.616c-22.208 4.448-40.448 20.32-47.872 41.76-4.128 11.808-8.896 23.264-14.304 34.368-4.288 8.864-6.4 18.368-6.4 27.936 0 12.448 3.616 24.8 10.752 35.488l55.52 83.328-61.568 61.568-83.328-55.552c-18.88-12.576-42.976-14.176-63.36-4.384-11.104 5.376-22.56 10.24-34.4 14.368-21.408 7.424-37.28 25.632-41.728 47.872l-19.648 98.048-87.040 0.096-19.648-98.112zM735.968 512c0-123.68-100.32-224-224-224-123.712 0-224 100.32-224 224s100.32 224 224 224c123.68 0 224-100.32 224-224zM315.936 512c0-108.224 87.808-196 196-196 108.224 0 196 87.776 196 196 0 108.192-87.776 196-196 196-108.192 0-196-87.808-196-196zM639.968 512c0-70.72-57.28-128-128-128-70.688 0-128 57.28-128 128 0 70.688 57.312 128 128 128s128-57.312 128-128zM415.936 512c0-52.992 43.008-96 96-96s96 43.008 96 96-43.008 96-96 96c-52.992 0-96-43.008-96-96z"></path>
</svg>
